<?xml version="1.0" encoding="UTF-8" standalone="no"?>
<!-- Created with Inkscape (http://www.inkscape.org/) -->

<svg
   version="1.1"
   id="svg148"
   width="203.59477"
   height="136.52242"
   viewBox="0 0 203.59477 136.52242"
   sodipodi:docname="pb-logo.svg"
   inkscape:version="1.2.2 (b0a8486541, 2022-12-01)"
   xmlns:inkscape="http://www.inkscape.org/namespaces/inkscape"
   xmlns:sodipodi="http://sodipodi.sourceforge.net/DTD/sodipodi-0.dtd"
   xmlns="http://www.w3.org/2000/svg"
   xmlns:svg="http://www.w3.org/2000/svg">
  <defs
     id="defs152">
    <clipPath
       clipPathUnits="userSpaceOnUse"
       id="clipPath168">
      <path
         d="M 0,144 H 252 V 0 H 0 Z"
         id="path166" />
    </clipPath>
  </defs>
  <sodipodi:namedview
     id="namedview150"
     pagecolor="#ffffff"
     bordercolor="#666666"
     borderopacity="1.0"
     inkscape:showpageshadow="2"
     inkscape:pageopacity="0.0"
     inkscape:pagecheckerboard="0"
     inkscape:deskcolor="#d1d1d1"
     showgrid="false"
     inkscape:zoom="2.2738095"
     inkscape:cx="97.193717"
     inkscape:cy="79.382199"
     inkscape:window-width="1600"
     inkscape:window-height="834"
     inkscape:window-x="0"
     inkscape:window-y="0"
     inkscape:window-maximized="1"
     inkscape:current-layer="g156">
    <inkscape:page
       x="0"
       y="0"
       id="page154"
       width="203.59477"
       height="136.52242" />
  </sodipodi:namedview>
  <g
     id="g156"
     inkscape:groupmode="layer"
     inkscape:label="Page 1"
     transform="matrix(1.3333333,0,0,-1.3333333,-70.848704,175.45424)">
    <text
       xml:space="preserve"
       transform="matrix(1,0,0,-1,67.4668,35.8232)"
       style="font-variant:normal;font-weight:600;font-stretch:normal;font-size:27.6014px;font-family:'Aktiv Grotesk';-inkscape-font-specification:AktivGrotesk-SemiBold;writing-mode:lr-tb;fill:#fbb03f;fill-opacity:1;fill-rule:nonzero;stroke:none"
       id="text160"><tspan
         x="0 19.293379 34.060127 57.631721 73.944153 84.294678 90.698204 106.98302 123.24025"
         y="0"
         sodipodi:role="line"
         id="tspan158">Cambridge</tspan></text>
    <g
       id="g162">
      <g
         id="g164"
         clip-path="url(#clipPath168)">
        <g
           id="g170"
           transform="translate(69.6781,72.0999)">
          <path
             d="m 0,0 c -0.77,0.034 -1.508,0.146 -2.211,0.318 l 1.168,6.312 c 1.462,7.703 5.114,12.957 8.739,12.796 2.581,-0.115 4.036,-2.641 3.852,-6.83 C 11.248,5.784 7.049,-0.313 0,0 M 12.971,28.501 C 8.405,28.704 4.337,26.229 1.668,22.212 c 0.562,5.652 -0.748,6.825 -3.51,6.948 -1.533,0.068 -6.175,-0.498 -8.498,-0.944 0.291,-0.883 0.033,-4.136 -0.863,-10.383 -0.818,-5.707 -0.973,-7.19 -1.875,-14.088 -0.424,-3.239 -0.795,-6.108 -1.03,-8.63 -0.388,-4.182 -0.751,-5.492 -1.197,-10.568 -0.419,-4.762 -0.46,-4.451 -0.748,-7.888 -1.004,-11.938 -0.264,-13.135 0.464,-13.715 0.551,-0.438 3.641,-1.758 9.648,1.363 -0.292,0.883 0.312,17.54 1.448,23.677 l 0.263,1.422 0.286,1.545 c 0.34,-0.028 0.685,-0.049 1.033,-0.064 14.459,-0.643 25.387,9.448 25.994,23.227 0.371,8.435 -3.366,14.087 -10.112,14.387"
             style="fill:#2b337d;fill-opacity:1;fill-rule:nonzero;stroke:none"
             id="path172" />
        </g>
        <g
           id="g174"
           transform="translate(105.1476,72.2571)">
          <path
             d="M 0,0 1.024,6.337 C 2.311,14.072 5.842,19.408 9.47,19.33 12.053,19.275 13.565,16.783 13.476,12.591 13.331,5.774 9.272,-0.419 2.218,-0.267 1.448,-0.25 0.706,-0.156 0,0 m 11.267,-6.611 c 0,0 1.977,0.838 3.476,1.859 6.175,4.204 9.448,11.96 9.208,19.147 -0.084,2.517 -0.302,9.553 -5.243,12.672 -1.46,0.921 -3.201,1.436 -5.193,1.479 -4.632,0.1 -8.681,-2.6 -11.053,-6.958 L 4.748,35.735 C 6.74,52.95 4.953,57.989 1.533,58.062 -0.001,58.095 -4.298,57.446 -6.61,56.948 -6.298,56.071 -4.517,51.406 -6.726,36.04 l -2.78,-22.29 -3.78,-20.362 -0.016,-0.111 -0.006,-0.015 c 2.301,-1.108 6.684,-2.575 11.799,-2.685 4.482,-0.096 7.847,0.934 8.552,1.152 1.939,0.599 3.686,1.408 4.224,1.66"
             style="fill:#2b337d;fill-opacity:1;fill-rule:nonzero;stroke:none"
             id="path176" />
        </g>
        <g
           id="g178"
           transform="translate(159.1512,103.9084)">
          <path
             d="m 0,0 c 0,0 -3.257,0.029 -2.513,-2.62 0,0 -3.457,0.051 -2.9,-2.778 0,0 -3.618,-0.717 -3.368,-3.226 0.249,-2.508 6.317,-10.716 11.539,-11.299 0,0 1.628,-0.389 2.901,2.777 0,0 1.279,-1.269 2.993,2.868 0,0 1.81,-0.07 2.514,2.619 0,0 -8.026,4.073 -11.166,11.659"
             style="fill:#cce3f2;fill-opacity:1;fill-rule:nonzero;stroke:none"
             id="path180" />
        </g>
        <g
           id="g182"
           transform="translate(161.5333,83.3668)">
          <path
             d="m 0,0 -15.343,-14.695 c 0,0 -2.577,2.316 -1.578,6.329 L -5.07,2.983 Z"
             style="fill:#f08221;fill-opacity:1;fill-rule:nonzero;stroke:none"
             id="path184" />
        </g>
        <g
           id="g186"
           transform="translate(150.3702,95.2846)">
          <path
             d="m 0,0 c 0,0 2.835,-6.363 6.093,-8.934 l -11.85,-11.349 c 0,0 -2.864,-0.456 -3.689,3.851 l -6.031,1.609 z"
             style="fill:#faa830;fill-opacity:1;fill-rule:nonzero;stroke:none"
             id="path188" />
        </g>
        <g
           id="g190"
           transform="translate(135.6229,79.6993)">
          <path
             d="m 0,0 -3.638,-12.977 14.205,1.95 c 0,0 -1.925,2.123 -1.577,6.329 0,0 -4.06,-0.705 -3.689,3.852 0,0 -3.509,-0.918 -5.301,0.846"
             style="fill:#edcfb8;fill-opacity:1;fill-rule:nonzero;stroke:none"
             id="path192" />
        </g>
        <g
           id="g194"
           transform="translate(160.6615,105.1408)">
          <path
             d="m 0,0 c 0,0 6.348,8.917 9.786,18.437 3.438,9.52 17.608,6.337 17.608,6.337 0,0 10.262,-5.991 10.948,-10.661 0.687,-4.671 2.913,-11.866 -4.15,-16.477 -7.062,-4.612 -10.429,-3.532 -10.429,-3.532 0,0 -9.444,-1.751 -11.676,-4.665 -2.231,-2.914 -3.06,-1.674 -3.06,-1.674 0,0 -2.23,-0.153 -5.683,4.038 C -0.11,-4.006 -1.494,-2.23 0,0"
             style="fill:#f8ead4;fill-opacity:1;fill-rule:nonzero;stroke:none"
             id="path196" />
        </g>
        <g
           id="g198"
           transform="translate(192.9688,126.8156)">
          <path
             d="m 0,0 c 0,0 0.283,-1.203 -7.892,-0.72 -8.175,0.483 -12.255,-4.273 -15.451,-10.007 -3.195,-5.734 -4.624,-4.429 -4.624,-4.429 l 6.063,13.896 c 0,0 6.715,5.993 10.047,5.055 C -8.525,2.856 -4.824,4.471 0,0"
             style="fill:#ffffff;fill-opacity:1;fill-rule:nonzero;stroke:none"
             id="path200" />
        </g>
        <g
           id="g202"
           transform="translate(166.3626,94.3931)">
          <path
             d="M 0,0 C 0,0 -3.385,-1.991 -5.122,-1.186 L -2.61,-2.5 c 0,0 -4.053,-2.65 -5.425,-1.476 l 2.648,-1.473 c 0,0 -4.597,-2.524 -5.716,-1.465 l 6.65,-3.494 8.425,7.37 c 0,0 -0.778,2.4 -3.972,3.038"
             style="fill:#58a2cc;fill-opacity:1;fill-rule:nonzero;stroke:none"
             id="path204" />
        </g>
        <g
           id="g206"
           transform="translate(158.231,91.8101)">
          <path
             d="m 0,0 c 0.679,-0.692 1.286,-1.262 1.942,-1.775 1.416,-1.107 3.011,-1.872 4.719,-2.407 0.422,-0.133 0.802,-0.023 1.123,0.289 0.224,0.218 0.368,0.483 0.505,0.758 C 8.371,-2.97 8.322,-2.886 8.16,-2.818 7.93,-2.72 7.708,-2.605 7.485,-2.493 5.929,-1.715 4.536,-0.698 3.187,0.392 1.874,1.454 0.736,2.672 -0.164,4.099 -0.955,5.352 -1.605,6.683 -2.174,8.051 -2.227,8.179 -2.266,8.276 -2.442,8.263 -2.986,8.22 -3.359,7.918 -3.497,7.394 -3.584,7.064 -3.589,6.733 -3.518,6.404 -3.289,5.351 -2.951,4.334 -2.471,3.368 -1.821,2.062 -0.863,0.982 0,0 m -3.118,-2.948 c 0.589,-0.651 1.366,-1.289 2.197,-1.865 1.323,-0.917 2.75,-1.627 4.28,-2.132 0.542,-0.18 0.995,-0.077 1.378,0.356 0.182,0.205 0.301,0.441 0.42,0.681 0.071,0.143 0.018,0.217 -0.118,0.278 -1.463,0.664 -2.805,1.529 -4.099,2.476 -1.543,1.129 -2.888,2.451 -3.926,4.063 -0.891,1.385 -1.733,2.799 -2.333,4.342 -0.044,0.113 -0.082,0.213 -0.248,0.206 -0.528,-0.021 -0.916,-0.311 -1.062,-0.82 -0.124,-0.432 -0.08,-0.86 0.024,-1.288 0.574,-2.372 1.68,-4.451 3.487,-6.297 M 3.696,2.223 C 4.161,1.708 5.221,0.883 6.409,0.218 7.373,-0.321 8.374,-0.771 9.423,-1.119 10,-1.311 10.475,-1.19 10.862,-0.715 c 0.124,0.153 0.219,0.32 0.313,0.49 0.122,0.221 0.097,0.362 -0.162,0.471 C 10.468,0.477 9.948,0.762 9.436,1.06 7.096,2.42 5.104,4.177 3.466,6.331 2.363,7.78 1.447,9.34 0.778,11.038 0.697,11.243 0.576,11.299 0.373,11.263 -0.086,11.181 -0.404,10.948 -0.542,10.484 -0.639,10.156 -0.661,9.827 -0.594,9.496 -0.4,8.551 -0.135,7.622 0.301,6.761 1.062,5.256 2.09,3.938 3.696,2.223 m -8.941,-17.117 c 0.001,-0.002 0.002,-0.003 0.003,-0.004 2.266,2.17 4.532,4.34 6.797,6.51 0.233,0.223 0.229,0.233 -0.065,0.357 -0.82,0.345 -1.619,0.732 -2.37,1.209 -0.236,0.15 -0.379,0.118 -0.571,-0.067 -3.324,-3.193 -6.655,-6.378 -9.98,-9.569 -0.293,-0.281 -0.622,-0.533 -0.851,-0.873 -0.86,-1.276 -0.858,-2.596 -0.165,-3.939 0.173,-0.335 0.196,-0.333 0.465,-0.076 2.246,2.15 4.491,4.301 6.737,6.452 m -9.576,10.241 c -2.193,-2.1 -4.385,-4.2 -6.578,-6.3 -0.06,-0.058 -0.118,-0.118 -0.18,-0.173 -0.108,-0.096 -0.111,-0.171 0.014,-0.263 1.299,-0.951 3.252,-1.079 4.539,0.139 3.437,3.25 6.84,6.535 10.261,9.801 0.163,0.155 0.19,0.275 0.073,0.474 -0.479,0.817 -0.843,1.687 -1.154,2.58 -0.11,0.315 -0.11,0.316 -0.357,0.08 -2.206,-2.113 -4.412,-4.225 -6.618,-6.338 m 4.107,-3.207 c 0.002,-0.002 0.004,-0.004 0.006,-0.007 -1.664,-1.593 -3.333,-3.182 -4.991,-4.783 -0.959,-0.928 -0.708,-2.545 0.465,-3.088 0.74,-0.343 1.643,-0.152 2.324,0.499 3.276,3.135 6.55,6.273 9.825,9.409 0.318,0.304 0.312,0.309 -0.042,0.598 -0.77,0.627 -1.452,1.344 -2.091,2.101 -0.245,0.291 -0.24,0.305 -0.523,0.034 -1.658,-1.588 -3.316,-3.175 -4.973,-4.763 m -3.476,-14.372 c 0.111,0.086 0.022,0.159 -0.009,0.222 -0.642,1.284 -0.808,2.621 -0.452,4.016 0.041,0.164 -0.002,0.203 -0.163,0.221 -1.965,0.222 -3.291,1.652 -3.363,3.634 -0.008,0.223 -0.084,0.228 -0.264,0.199 -1.391,-0.222 -2.688,0.055 -3.884,0.785 -0.236,0.144 -0.282,0.071 -0.343,-0.149 -0.669,-2.396 -1.342,-4.791 -2.023,-7.184 -0.067,-0.234 -0.038,-0.29 0.22,-0.282 1.752,0.053 2.968,-1.219 2.831,-2.966 -0.022,-0.278 0.039,-0.302 0.287,-0.241 2.335,0.574 4.673,1.138 7.01,1.705 0.054,0.013 0.107,0.028 0.153,0.04 M 2.783,10.704 C 2.775,10.575 2.845,10.494 2.888,10.407 3.581,8.996 4.448,7.698 5.471,6.51 7.108,4.611 9.038,3.079 11.287,1.956 c 0.242,-0.121 0.383,-0.09 0.525,0.132 0.261,0.406 0.563,0.764 0.979,1.04 3.975,2.638 8.335,4.303 13.006,5.2 1.619,0.31 3.262,0.463 4.883,0.759 1.921,0.35 3.664,1.108 5.185,2.335 1.236,0.996 2.232,2.207 3.03,3.582 1.696,2.921 2.26,6.022 1.48,9.328 -0.697,2.955 -2.163,5.515 -4.125,7.797 -1.345,1.566 -2.93,2.852 -4.794,3.758 -3.429,1.667 -7.029,2.099 -10.763,1.389 C 17.07,36.587 14.421,34.548 12.642,31.347 11.844,29.913 11.4,28.339 10.898,26.791 9.906,23.73 8.732,20.747 7.137,17.942 6.474,16.775 5.767,15.636 4.915,14.594 4.617,14.229 4.271,13.902 4.06,13.471 3.798,12.937 3.92,12.426 4.393,12.068 4.481,12.002 4.574,11.941 4.667,11.88 5.292,11.473 5.829,10.972 6.301,10.393 6.745,9.85 7.192,9.306 7.703,8.82 8.693,7.878 9.79,7.717 10.975,8.392 c 2.477,1.413 4.835,3.014 7.199,4.604 2.693,1.812 5.363,3.659 8.043,5.491 0.313,0.214 0.627,0.427 0.938,0.644 0.16,0.113 0.163,0.212 -0.037,0.288 -0.147,0.055 -0.29,0.12 -0.435,0.182 -1.271,0.547 -2.362,1.329 -3.22,2.428 -0.672,0.861 -1.263,1.779 -1.89,2.671 -0.17,0.241 -0.216,0.255 -0.417,0.033 C 20.721,24.254 20.297,23.765 19.869,23.279 18.313,21.507 16.762,19.732 15.2,17.965 13.56,16.108 11.91,14.258 10.264,12.406 9.827,11.915 9.269,11.9 8.812,12.364 c -0.447,0.452 -0.486,0.887 -0.08,1.409 0.381,0.488 0.792,0.952 1.197,1.421 0.865,1.001 1.733,1.998 2.6,2.996 0.862,0.99 1.725,1.98 2.588,2.97 0.88,1.011 1.759,2.024 2.64,3.034 0.906,1.038 1.813,2.076 2.721,3.112 0.463,0.528 0.901,1.084 1.502,1.469 0.536,0.343 0.98,0.2 1.227,-0.384 0.2,-0.472 0.297,-0.972 0.38,-1.474 0.119,-0.725 0.308,-1.431 0.623,-2.095 0.866,-1.824 2.349,-2.981 4.139,-3.801 0.449,-0.205 0.927,-0.313 1.403,-0.434 0.987,-0.251 1.299,-1.231 0.629,-1.965 C 30.246,18.474 30.073,18.355 29.904,18.244 28.643,17.419 27.365,16.617 26.116,15.773 21.012,12.324 15.914,8.866 10.823,5.399 10.374,5.094 9.991,5.081 9.516,5.331 7.876,6.195 6.507,7.405 5.153,8.641 4.384,9.344 3.6,10.03 2.783,10.704 m -18.9,-13.964 c 2.487,2.381 4.973,4.764 7.464,7.142 0.183,0.175 0.281,0.355 0.306,0.617 0.148,1.568 1.191,2.542 2.814,2.63 0.233,0.013 0.31,0.083 0.346,0.31 0.231,1.473 1.108,2.304 2.604,2.476 0.2,0.023 0.285,0.085 0.3,0.298 0.044,0.591 0.216,1.145 0.571,1.63 0.531,0.725 1.281,1.031 2.149,1.103 0.259,0.021 0.518,0.02 0.776,-0.011 0.098,-0.012 0.179,-0.005 0.215,0.115 0.238,0.79 0.773,1.406 1.232,2.063 1.161,1.661 2.328,3.317 3.289,5.107 1.208,2.252 2.172,4.602 2.845,7.066 0.683,2.499 1.718,4.823 3.308,6.885 1.607,2.084 3.656,3.57 6.111,4.497 1.978,0.746 4.037,1.067 6.144,1.109 2.781,0.055 5.422,-0.523 7.911,-1.768 1.34,-0.671 2.541,-1.542 3.668,-2.526 1.6,-1.397 2.972,-2.991 4.104,-4.783 1.588,-2.513 2.689,-5.215 2.929,-8.206 0.297,-3.721 -0.674,-7.078 -3.05,-9.987 C 38.123,10.308 35.822,8.823 33.18,7.836 31.477,7.199 29.701,6.893 27.911,6.645 24.666,6.195 21.52,5.392 18.551,3.975 16.857,3.167 15.278,2.176 13.835,0.972 13.785,0.93 13.733,0.891 13.681,0.853 13.347,0.61 13.096,0.333 12.987,-0.102 12.799,-0.854 12.446,-1.534 11.873,-2.085 11.451,-2.49 10.958,-2.744 10.387,-2.84 10.195,-2.872 10.111,-2.951 10.054,-3.138 9.777,-4.05 9.359,-4.874 8.539,-5.429 8.132,-5.704 7.682,-5.87 7.191,-5.892 6.993,-5.901 6.907,-5.97 6.844,-6.159 6.555,-7.02 6.106,-7.773 5.32,-8.28 5.012,-8.478 4.679,-8.622 4.316,-8.66 4.048,-8.688 3.858,-8.812 3.67,-8.992 c -4.349,-4.171 -8.701,-8.339 -13.054,-12.506 -0.568,-0.545 -1.147,-1.078 -1.706,-1.631 -0.294,-0.29 -0.624,-0.463 -1.028,-0.559 -3.725,-0.893 -7.447,-1.8 -11.17,-2.703 -1.134,-0.274 -2.266,-0.552 -3.4,-0.822 -0.989,-0.234 -1.712,0.493 -1.44,1.467 1.048,3.752 2.108,7.501 3.163,11.251 0.306,1.087 0.617,2.173 0.913,3.262 0.095,0.352 0.267,0.636 0.532,0.888 2.472,2.357 4.936,4.722 7.403,7.085"
             style="fill:#2b337d;fill-opacity:1;fill-rule:nonzero;stroke:none"
             id="path208" />
        </g>
        <g
           id="g210"
           transform="translate(194.5003,107.6563)">
          <path
             d="m 0,0 c -0.336,-0.313 -0.828,-0.319 -1.153,-0.027 -0.329,0.294 -0.384,0.76 -0.1,1.126 0.398,0.514 0.774,1.038 1.076,1.615 0.984,1.878 1.121,3.847 0.621,5.88 -0.278,1.132 -0.737,2.189 -1.361,3.174 -0.283,0.446 -0.196,0.952 0.193,1.202 0.42,0.271 0.9,0.174 1.198,-0.292 1.12,-1.746 1.78,-3.651 1.903,-5.73 C 2.53,4.355 1.692,2.091 0.078,0.088 0.049,0.052 0.017,0.019 0,0"
             style="fill:#2b337d;fill-opacity:1;fill-rule:nonzero;stroke:none"
             id="path212" />
        </g>
        <g
           id="g214"
           transform="translate(71.7026,64.0642)">
          <path
             d="m 0,0 c 1.314,0.015 2.606,1.738 3.92,1.753 0.544,-0.15 8.115,-2.096 13.898,3.108 4.344,3.909 4.722,7.461 4.772,8.53 C 22.026,9.374 21.462,5.356 20.899,1.338 19.46,0.22 16.801,-1.523 13.066,-2.253 6.609,-3.513 1.498,-0.853 0,0"
             style="fill:#2b337d;fill-opacity:1;fill-rule:nonzero;stroke:none"
             id="path216" />
        </g>
        <g
           id="g218"
           transform="translate(105.6748,68.1636)">
          <path
             d="m 0,0 c 1.111,-0.108 2.377,1.232 3.488,1.124 1.75,-1.418 7.478,-5.643 14.643,-3.746 3.295,0.872 5.643,1.302 7.246,2.784 -0.083,-0.896 -0.046,-1.887 0.392,-2.551 0.511,-0.774 1.246,-0.619 1.262,-0.802 C 27.088,-3.828 18.453,-8.626 9.054,-5.563 4.908,-4.212 1.828,-1.727 0,0"
             style="fill:#2b337d;fill-opacity:1;fill-rule:nonzero;stroke:none"
             id="path220" />
        </g>
      </g>
    </g>
  </g>
</svg>
